<?xml version="1.0" encoding="UTF-8" standalone="no"?>
<!DOCTYPE svg PUBLIC "-//W3C//DTD SVG 1.1//EN"
 "http://www.w3.org/Graphics/SVG/1.1/DTD/svg11.dtd">
<!-- Generated by graphviz version 2.43.0 (0)
 -->
<!-- Title: AST Pages: 1 -->
<svg width="236pt" height="285pt"
 viewBox="0.00 0.00 236.35 285.22" xmlns="http://www.w3.org/2000/svg" xmlns:xlink="http://www.w3.org/1999/xlink">
<g id="graph0" class="graph" transform="scale(1 1) rotate(0) translate(4 281.22)">
<title>AST</title>
<polygon fill="white" stroke="transparent" points="-4,4 -4,-281.22 232.35,-281.22 232.35,4 -4,4"/>
<!-- node0 -->
<g id="node1" class="node">
<title>node0</title>
<ellipse fill="snow" stroke="black" cx="83.7" cy="-250.35" rx="27" ry="26.74"/>
<text text-anchor="middle" x="83.7" y="-254.15" font-family="Arial" font-size="14.00">var</text>
<text text-anchor="middle" x="83.7" y="-239.15" font-family="Arial" font-size="14.00">x</text>
</g>
<!-- node1 -->
<g id="node2" class="node">
<title>node1</title>
<ellipse fill="snow" stroke="black" cx="29.7" cy="-138.61" rx="29.9" ry="26.74"/>
<text text-anchor="middle" x="29.7" y="-142.41" font-family="Arial" font-size="14.00">type</text>
<text text-anchor="middle" x="29.7" y="-127.41" font-family="Arial" font-size="14.00">int</text>
</g>
<!-- node0&#45;&gt;node1 -->
<g id="edge1" class="edge">
<title>node0&#45;&gt;node1</title>
<path fill="none" stroke="black" d="M72.11,-225.81C64.48,-210.29 54.37,-189.75 45.94,-172.61"/>
<polygon fill="black" stroke="black" points="49.01,-170.92 41.45,-163.49 42.72,-174.01 49.01,-170.92"/>
</g>
<!-- node2 -->
<g id="node3" class="node">
<title>node2</title>
<ellipse fill="snow" stroke="black" cx="137.7" cy="-138.61" rx="35.21" ry="26.74"/>
<text text-anchor="middle" x="137.7" y="-142.41" font-family="Arial" font-size="14.00">binop</text>
<text text-anchor="middle" x="137.7" y="-127.41" font-family="Arial" font-size="14.00">+</text>
</g>
<!-- node0&#45;&gt;node2 -->
<g id="edge4" class="edge">
<title>node0&#45;&gt;node2</title>
<path fill="none" stroke="black" d="M95.28,-225.81C102.81,-210.5 112.75,-190.31 121.11,-173.32"/>
<polygon fill="black" stroke="black" points="124.3,-174.77 125.57,-164.26 118.02,-171.68 124.3,-174.77"/>
</g>
<!-- node3 -->
<g id="node4" class="node">
<title>node3</title>
<ellipse fill="snow" stroke="black" cx="81.7" cy="-26.87" rx="34.8" ry="26.74"/>
<text text-anchor="middle" x="81.7" y="-30.67" font-family="Arial" font-size="14.00">literal</text>
<text text-anchor="middle" x="81.7" y="-15.67" font-family="Arial" font-size="14.00">1</text>
</g>
<!-- node2&#45;&gt;node3 -->
<g id="edge2" class="edge">
<title>node2&#45;&gt;node3</title>
<path fill="none" stroke="black" d="M125.27,-113.26C117.44,-97.91 107.23,-77.9 98.66,-61.11"/>
<polygon fill="black" stroke="black" points="101.75,-59.47 94.09,-52.16 95.52,-62.66 101.75,-59.47"/>
</g>
<!-- node4 -->
<g id="node5" class="node">
<title>node4</title>
<ellipse fill="snow" stroke="black" cx="193.7" cy="-26.87" rx="34.8" ry="26.74"/>
<text text-anchor="middle" x="193.7" y="-30.67" font-family="Arial" font-size="14.00">literal</text>
<text text-anchor="middle" x="193.7" y="-15.67" font-family="Arial" font-size="14.00">1</text>
</g>
<!-- node2&#45;&gt;node4 -->
<g id="edge3" class="edge">
<title>node2&#45;&gt;node4</title>
<path fill="none" stroke="black" d="M150.13,-113.26C157.96,-97.91 168.17,-77.9 176.74,-61.11"/>
<polygon fill="black" stroke="black" points="179.88,-62.66 181.31,-52.16 173.64,-59.47 179.88,-62.66"/>
</g>
</g>
</svg>
