<?xml version="1.0" encoding="UTF-8" standalone="no"?>
<!DOCTYPE svg PUBLIC "-//W3C//DTD SVG 1.1//EN"
 "http://www.w3.org/Graphics/SVG/1.1/DTD/svg11.dtd">
<!-- Generated by graphviz version 2.43.0 (0)
 -->
<!-- Title: AST Pages: 1 -->
<svg width="389pt" height="361pt"
 viewBox="0.00 0.00 388.65 361.48" xmlns="http://www.w3.org/2000/svg" xmlns:xlink="http://www.w3.org/1999/xlink">
<g id="graph0" class="graph" transform="scale(1 1) rotate(0) translate(4 357.48)">
<title>AST</title>
<polygon fill="white" stroke="transparent" points="-4,4 -4,-357.48 384.65,-357.48 384.65,4 -4,4"/>
<!-- node0 -->
<g id="node1" class="node">
<title>node0</title>
<ellipse fill="snow" stroke="black" cx="190.7" cy="-335.48" rx="38.99" ry="18"/>
<text text-anchor="middle" x="190.7" y="-331.78" font-family="Arial" font-size="14.00">for_cali</text>
</g>
<!-- node1 -->
<g id="node2" class="node">
<title>node1</title>
<ellipse fill="snow" stroke="black" cx="134.7" cy="-241.48" rx="27" ry="18"/>
<text text-anchor="middle" x="134.7" y="-237.78" font-family="Arial" font-size="14.00">link</text>
</g>
<!-- node0&#45;&gt;node1 -->
<g id="edge4" class="edge">
<title>node0&#45;&gt;node1</title>
<path fill="none" stroke="black" d="M180.69,-318.03C172.11,-303.95 159.64,-283.45 149.84,-267.36"/>
<polygon fill="black" stroke="black" points="152.63,-265.2 144.44,-258.48 146.65,-268.84 152.63,-265.2"/>
</g>
<!-- node5 -->
<g id="node6" class="node">
<title>node5</title>
<ellipse fill="snow" stroke="black" cx="246.7" cy="-241.48" rx="27" ry="18"/>
<text text-anchor="middle" x="246.7" y="-237.78" font-family="Arial" font-size="14.00">link</text>
</g>
<!-- node0&#45;&gt;node5 -->
<g id="edge8" class="edge">
<title>node0&#45;&gt;node5</title>
<path fill="none" stroke="black" d="M200.71,-318.03C209.28,-303.95 221.76,-283.45 231.55,-267.36"/>
<polygon fill="black" stroke="black" points="234.75,-268.84 236.96,-258.48 228.77,-265.2 234.75,-268.84"/>
</g>
<!-- node2 -->
<g id="node3" class="node">
<title>node2</title>
<ellipse fill="snow" stroke="black" cx="29.7" cy="-138.61" rx="27" ry="26.74"/>
<text text-anchor="middle" x="29.7" y="-142.41" font-family="Arial" font-size="14.00">var</text>
<text text-anchor="middle" x="29.7" y="-127.41" font-family="Arial" font-size="14.00">i</text>
</g>
<!-- node1&#45;&gt;node2 -->
<g id="edge2" class="edge">
<title>node1&#45;&gt;node2</title>
<path fill="none" stroke="black" d="M119.65,-226.03C103.06,-210.09 76.05,-184.14 55.95,-164.83"/>
<polygon fill="black" stroke="black" points="58.26,-162.2 48.62,-157.79 53.41,-167.24 58.26,-162.2"/>
</g>
<!-- node4 -->
<g id="node5" class="node">
<title>node4</title>
<ellipse fill="snow" stroke="black" cx="134.7" cy="-138.61" rx="34.8" ry="26.74"/>
<text text-anchor="middle" x="134.7" y="-142.41" font-family="Arial" font-size="14.00">literal</text>
<text text-anchor="middle" x="134.7" y="-127.41" font-family="Arial" font-size="14.00">1</text>
</g>
<!-- node1&#45;&gt;node4 -->
<g id="edge3" class="edge">
<title>node1&#45;&gt;node4</title>
<path fill="none" stroke="black" d="M134.7,-223.37C134.7,-210.37 134.7,-192.02 134.7,-175.8"/>
<polygon fill="black" stroke="black" points="138.2,-175.54 134.7,-165.54 131.2,-175.54 138.2,-175.54"/>
</g>
<!-- node3 -->
<g id="node4" class="node">
<title>node3</title>
<ellipse fill="snow" stroke="black" cx="29.7" cy="-26.87" rx="29.9" ry="26.74"/>
<text text-anchor="middle" x="29.7" y="-30.67" font-family="Arial" font-size="14.00">type</text>
<text text-anchor="middle" x="29.7" y="-15.67" font-family="Arial" font-size="14.00">int</text>
</g>
<!-- node2&#45;&gt;node3 -->
<g id="edge1" class="edge">
<title>node2&#45;&gt;node3</title>
<path fill="none" stroke="black" d="M29.7,-111.6C29.7,-97.49 29.7,-79.82 29.7,-64.36"/>
<polygon fill="black" stroke="black" points="33.2,-64.07 29.7,-54.07 26.2,-64.07 33.2,-64.07"/>
</g>
<!-- node6 -->
<g id="node7" class="node">
<title>node6</title>
<ellipse fill="snow" stroke="black" cx="246.7" cy="-138.61" rx="34.8" ry="26.74"/>
<text text-anchor="middle" x="246.7" y="-142.41" font-family="Arial" font-size="14.00">literal</text>
<text text-anchor="middle" x="246.7" y="-127.41" font-family="Arial" font-size="14.00">4</text>
</g>
<!-- node5&#45;&gt;node6 -->
<g id="edge5" class="edge">
<title>node5&#45;&gt;node6</title>
<path fill="none" stroke="black" d="M246.7,-223.37C246.7,-210.37 246.7,-192.02 246.7,-175.8"/>
<polygon fill="black" stroke="black" points="250.2,-175.54 246.7,-165.54 243.2,-175.54 250.2,-175.54"/>
</g>
<!-- node7 -->
<g id="node8" class="node">
<title>node7</title>
<ellipse fill="snow" stroke="black" cx="352.7" cy="-138.61" rx="27.9" ry="18"/>
<text text-anchor="middle" x="352.7" y="-134.91" font-family="Arial" font-size="14.00">print</text>
</g>
<!-- node5&#45;&gt;node7 -->
<g id="edge7" class="edge">
<title>node5&#45;&gt;node7</title>
<path fill="none" stroke="black" d="M261.89,-226.03C279.75,-209.02 309.59,-180.64 330.15,-161.06"/>
<polygon fill="black" stroke="black" points="332.71,-163.46 337.54,-154.04 327.88,-158.39 332.71,-163.46"/>
</g>
<!-- node8 -->
<g id="node9" class="node">
<title>node8</title>
<ellipse fill="snow" stroke="black" cx="352.7" cy="-26.87" rx="27" ry="26.74"/>
<text text-anchor="middle" x="352.7" y="-30.67" font-family="Arial" font-size="14.00">id</text>
<text text-anchor="middle" x="352.7" y="-15.67" font-family="Arial" font-size="14.00">i</text>
</g>
<!-- node7&#45;&gt;node8 -->
<g id="edge6" class="edge">
<title>node7&#45;&gt;node8</title>
<path fill="none" stroke="black" d="M352.7,-120.46C352.7,-105.41 352.7,-83.01 352.7,-64.01"/>
<polygon fill="black" stroke="black" points="356.2,-63.88 352.7,-53.88 349.2,-63.88 356.2,-63.88"/>
</g>
</g>
</svg>
